<svg width="183" height="61" viewBox="0 0 183 61" fill="none" xmlns="http://www.w3.org/2000/svg">
<path d="M110.429 0.0441895H133.826V4.93091H116.002V10.4153H131.787V15.0032H116.002V22.6497H134.195V27.5188H110.429V0.0441895Z" fill="#F3FF6F"/>
<path d="M80.4762 0.0441895H103.873V4.93091H86.0485V10.4153H101.834V15.0032H86.0485V22.6497H104.242V27.5188H80.4762V0.0441895Z" fill="#F3FF6F"/>
<path d="M47.4293 0.0441895H62.1071C63.9 0.0441895 65.4586 0.237549 66.7828 0.624268C68.1188 0.999268 69.2262 1.52075 70.1051 2.18872C70.984 2.85669 71.6344 3.65356 72.0563 4.57935C72.4899 5.49341 72.7067 6.48364 72.7067 7.55005C72.7067 9.29614 72.1559 10.8254 71.0543 12.1379C72.3199 12.8879 73.2633 13.8606 73.8844 15.0559C74.5055 16.2512 74.816 17.6106 74.816 19.134C74.816 20.4114 74.5992 21.5657 74.1656 22.5969C73.7438 23.6282 73.0934 24.5129 72.2145 25.2512C71.3473 25.9778 70.2457 26.5403 68.9098 26.9387C67.5856 27.3254 66.0211 27.5188 64.2164 27.5188H47.4293V0.0441895ZM64.2516 10.5911C64.7321 10.5911 65.2008 10.6086 65.6578 10.6438C66.443 9.8938 66.8356 9.03833 66.8356 8.07739C66.8356 7.0813 66.443 6.31372 65.6578 5.77466C64.8844 5.22388 63.7477 4.94849 62.2477 4.94849H53.0016V10.5911H64.2516ZM64.3571 22.6672C65.8571 22.6672 66.9938 22.345 67.7672 21.7004C68.5524 21.0559 68.9449 20.1477 68.9449 18.9758C68.9449 17.804 68.5524 16.8899 67.7672 16.2336C66.9938 15.5774 65.8571 15.2493 64.3571 15.2493H53.0016V22.6672H64.3571Z" fill="#F3FF6F"/>
<path d="M150.49 46.5266C150.49 44.593 150.853 42.7883 151.58 41.1125C152.306 39.425 153.367 37.9602 154.761 36.718C156.156 35.4758 157.867 34.4973 159.894 33.7825C161.933 33.0676 164.265 32.7102 166.89 32.7102C167.839 32.7102 168.789 32.7629 169.738 32.8684C170.699 32.9622 171.642 33.1145 172.568 33.3254C173.505 33.5364 174.414 33.8059 175.293 34.134C176.183 34.4504 177.027 34.8313 177.824 35.2766L175.257 39.4954C174.777 39.2141 174.232 38.9622 173.623 38.7395C173.013 38.5051 172.357 38.3118 171.654 38.1594C170.963 37.9954 170.242 37.8723 169.492 37.7903C168.754 37.7083 168.009 37.6672 167.259 37.6672C165.525 37.6672 163.978 37.8899 162.619 38.3352C161.259 38.7688 160.111 39.384 159.173 40.1809C158.236 40.9661 157.521 41.9094 157.029 43.011C156.537 44.1125 156.291 45.3196 156.291 46.6321C156.291 47.9915 156.548 49.2395 157.064 50.3762C157.58 51.5129 158.312 52.4915 159.261 53.3118C160.211 54.1321 161.359 54.7766 162.707 55.2454C164.054 55.7024 165.56 55.9309 167.224 55.9309C168.548 55.9309 169.761 55.7844 170.863 55.4915C171.964 55.1868 172.925 54.759 173.746 54.2083C174.566 53.6575 175.234 52.9954 175.75 52.2219C176.265 51.4368 176.605 50.5579 176.769 49.5852H167.172V44.9973H181.779V45.0149L181.797 44.9973C182.089 46.4036 182.177 47.7747 182.06 49.1106C181.955 50.4348 181.65 51.6887 181.146 52.8723C180.654 54.0442 179.974 55.1223 179.107 56.1067C178.24 57.0911 177.203 57.9407 175.996 58.6555C174.789 59.3586 173.418 59.9094 171.882 60.3079C170.347 60.6946 168.666 60.8879 166.838 60.8879C164.283 60.8879 161.992 60.5129 159.964 59.7629C157.949 59.0129 156.238 57.9875 154.832 56.6868C153.425 55.386 152.347 53.8625 151.597 52.1165C150.859 50.3704 150.49 48.5071 150.49 46.5266Z" fill="white"/>
<path d="M116.336 33.0442H121.908L139.029 42.009V33.0442H144.601V60.5188H139.029V47.9153L121.908 39.0032V60.5188H116.336V33.0442Z" fill="white"/>
<path d="M78.7535 46.7024C78.7535 44.6282 79.1344 42.7297 79.8961 41.0071C80.6578 39.2844 81.7242 37.8079 83.0953 36.5774C84.4781 35.3352 86.1305 34.3743 88.0524 33.6946C89.986 33.0149 92.1246 32.675 94.4684 32.675C96.8004 32.675 98.9332 33.0149 100.867 33.6946C102.8 34.3743 104.453 35.3352 105.824 36.5774C107.207 37.8079 108.279 39.2844 109.041 41.0071C109.802 42.7297 110.183 44.6282 110.183 46.7024C110.183 48.7883 109.802 50.7043 109.041 52.4504C108.279 54.1848 107.207 55.679 105.824 56.9329C104.453 58.1868 102.8 59.1653 100.867 59.8684C98.9332 60.5598 96.8004 60.9055 94.4684 60.9055C92.1246 60.9055 89.986 60.5598 88.0524 59.8684C86.1305 59.1653 84.4781 58.1868 83.0953 56.9329C81.7242 55.679 80.6578 54.1848 79.8961 52.4504C79.1344 50.7043 78.7535 48.7883 78.7535 46.7024ZM84.3258 46.7024C84.3258 48.1204 84.5778 49.3977 85.0817 50.5344C85.5973 51.6711 86.3063 52.6438 87.2086 53.4524C88.1227 54.2493 89.1949 54.8645 90.4254 55.2981C91.6676 55.7317 93.0153 55.9485 94.4684 55.9485C95.9215 55.9485 97.2633 55.7317 98.4938 55.2981C99.736 54.8645 100.808 54.2493 101.711 53.4524C102.613 52.6438 103.322 51.6711 103.838 50.5344C104.353 49.3977 104.611 48.1204 104.611 46.7024C104.611 45.2844 104.353 44.0129 103.838 42.8879C103.322 41.7629 102.613 40.8137 101.711 40.0403C100.808 39.2551 99.736 38.6575 98.4938 38.2473C97.2633 37.8372 95.9215 37.6321 94.4684 37.6321C93.0153 37.6321 91.6676 37.8372 90.4254 38.2473C89.1949 38.6575 88.1227 39.2551 87.2086 40.0403C86.3063 40.8137 85.5973 41.7629 85.0817 42.8879C84.5778 44.0129 84.3258 45.2844 84.3258 46.7024Z" fill="white"/>
<path d="M47.4293 33.0442H61.9137C64.0231 33.0442 65.8512 33.2727 67.3981 33.7297C68.9449 34.1868 70.2281 34.8489 71.2477 35.7161C72.2672 36.5715 73.0231 37.6204 73.5153 38.8625C74.0192 40.1047 74.2711 41.5051 74.2711 43.0637C74.2711 44.5286 74.025 45.8821 73.5328 47.1243C73.0406 48.3665 72.2848 49.4446 71.2653 50.3586C70.2574 51.261 68.9801 51.97 67.4332 52.4856C65.8864 52.9895 64.0582 53.2415 61.9489 53.2415L53.0016 53.2239V60.5188H47.4293V33.0442ZM62.0543 48.4075C63.109 48.4075 64.0289 48.2844 64.8141 48.0383C65.611 47.7805 66.2731 47.4231 66.8004 46.9661C67.3395 46.4973 67.7379 45.9348 67.9957 45.2786C68.2653 44.6106 68.4 43.8723 68.4 43.0637C68.4 41.4348 67.8668 40.1692 66.8004 39.2668C65.7457 38.3528 64.1637 37.8958 62.0543 37.8958H53.0016V48.4075H62.0543Z" fill="white"/>
<path fill-rule="evenodd" clip-rule="evenodd" d="M24.8184 15.7985C30.4384 15.8831 33.6205 17.3706 34.9618 19.3044C36.3832 21.3536 35.6195 23.7142 33.8059 24.9337C31.9597 26.1752 29.419 25.8466 27.402 24.333C25.4585 22.8746 23.9508 20.2981 23.8177 16.8004C14.4031 17.0213 3.9225 23.6064 1.01784 38.6138L0.0360618 38.4238C3.03127 22.9485 13.921 16.0217 23.8175 15.8001C24.0012 10.9351 26.8771 7.0314 30.2741 4.34113C33.7723 1.57075 37.9289 0.00242943 40.5091 4.65135e-06L40.51 1C38.2254 1.00215 34.2813 2.44323 30.895 5.12506C27.6418 7.70143 25.0021 11.344 24.8184 15.7985ZM24.8184 16.7986C24.9496 20.0009 26.3258 22.2751 28.0022 23.5332C29.7843 24.8705 31.853 25.0419 33.2479 24.1039C34.6755 23.1439 35.1931 21.3924 34.1401 19.8744C33.0795 18.3453 30.3205 16.8836 24.8184 16.7986Z" fill="white"/>
</svg>
